<?xml version="1.0" encoding="utf-8"?>
<!-- Generator: Adobe Illustrator 24.2.1, SVG Export Plug-In . SVG Version: 6.00 Build 0)  -->
<svg version="1.1" id="Layer_1" xmlns="http://www.w3.org/2000/svg" xmlns:xlink="http://www.w3.org/1999/xlink" x="0px" y="0px"
	 viewBox="0 0 579.1 107" style="enable-background:new 0 0 579.1 107;" xml:space="preserve">
<style type="text/css">
	.st0{fill-rule:evenodd;clip-rule:evenodd;fill:#C22B2F;}
	.st1{filter:url(#Adobe_OpacityMaskFilter);}
	.st2{fill-rule:evenodd;clip-rule:evenodd;fill:#FFFFFF;}
	.st3{mask:url(#mask-3_2_);fill-rule:evenodd;clip-rule:evenodd;fill:#C22B2F;}
	.st4{fill-rule:evenodd;clip-rule:evenodd;fill:#241A17;}
	.st5{filter:url(#Adobe_OpacityMaskFilter_1_);}
	.st6{mask:url(#mask-5_2_);fill-rule:evenodd;clip-rule:evenodd;fill:#241A17;}
</style>
<path id="Fill-1" class="st0" d="M6,81.8c0.5-2.2,1.5-3.5,2.9-4c1.3-0.4,2.5,0,3.4,1.3c0.7,1.2,0.7,2.7,0,4.7
	c-0.2,1.4-0.2,2.8-0.1,4.3c0.4,1.5,0.3,2.8-0.3,4.1c-0.5,1.3-1.3,2.5-2.2,3.5c-0.5,1.2-1.1,2.5-1.5,4c-0.4,1.6-1.1,2.6-2,3
	c-0.9,0.6-2.1,0.8-3.5,0.5c-1.3-0.4-2.2-1.3-2.5-2.7c-0.4-1.5-0.3-3.1,0.1-4.8c0.6-1.3,1.1-2.7,1.3-4.4c0-2.5,0.8-4.7,2.5-6.6
	C5.1,83.7,5.7,82.7,6,81.8 M20.3,81c0.5-0.2,0.9-0.4,1.2-0.7c0.2-0.5,1.2-0.5,2.8,0c1.1,0.4,1.9,1.1,2.3,2.1
	c0.4,1.4,0.5,2.7,0.5,3.8c-0.1,2,0.1,3.9,0.6,5.6c0.1,1.6-0.2,3.2-0.9,4.9c-0.1,1.1-0.2,1.9-0.2,2.4c-0.2,0.7-0.5,1.4-1.1,2.2
	c-1,1.1-1.9,1.7-2.7,1.7c-0.8,0.1-1.6-0.6-2.4-2.1c-1.1-1.6-1.6-2.9-1.5-4.1c-0.6-4.2-0.8-7-0.6-8.4c0.2-1.1,0.5-2.9,0.8-5.6
	C19.6,81.6,20,81,20.3,81 M32.9,77.5c0.4-0.3,0.7-0.7,1-1.2c0.1-0.6,1.1-0.9,2.8-0.8c1.2,0,2.3,0.5,3.1,1.5c0.9,1.3,1.4,2.4,1.6,3.6
	c0.1,0.6,0.3,1.1,0.5,1.6c0.1,0.5,0.1,1,0,1.5c0.2,1,0.4,1.9,0.5,2.6c0.1,0.7,0,1.5-0.3,2.6c-0.7,1.4-1.5,2.2-2.2,2.4
	c-0.8,0.3-1.8-0.1-3.1-1.4c-1.7-1.2-2.6-2.5-2.8-3.7c-0.9-1.9-1.3-3.1-1.3-3.8c0-0.5-0.1-1.4-0.4-2.7C32.3,78.3,32.6,77.6,32.9,77.5
	 M5.3,64.3c0.1-0.9-0.1-1.9-0.4-3c-0.2-1.2,0-2.5,0.8-4C7,54.6,8.2,53,9.3,52.5c0.8-0.4,1.2-1.2,1.3-2.3c0.1-1.1,0.6-2.4,1.6-3.8
	c0.6-1.3,0.7-2.6,0.1-3.8c-0.1-0.6-0.4-1.2-0.8-1.7c-0.5-0.7-1-1.1-1.5-1.2c-1.3-0.5-2.2-1.1-2.5-1.9c-0.3-0.4-0.7-0.7-1.2-0.9
	c-0.6-0.3-0.9-0.8-0.8-1.5c0.1-0.5-0.1-1-0.7-1.5c-0.5-0.6-0.9-1.2-0.9-1.9c-0.1-2.2,0.1-3.5,0.6-3.8c0.6-0.5,0.8-1,0.7-1.5
	c0-0.8,0.6-2.4,1.9-4.8c1.5-2.8,2.5-4.4,3-4.9c0.3-0.2,0.6-0.7,0.8-1.5c0.3-0.6,0.7-1.2,1.3-1.6c0.5-0.3,0.7-0.7,0.8-1.3
	c0.2-0.7,0.6-1.2,1.2-1.5c0.5-0.2,1-0.7,1.4-1.6C16.8,7.1,17.8,6,18.5,6c0.7,0,1.3-0.1,1.8-0.5C21.1,5.1,22,5,23.2,5.4
	c1,0.3,1.7,0.4,2.1,0.3c1.2-0.3,2.7,0,4.4,0.9c1.9,1.3,2.9,2.7,2.9,4.2c0.1,1.4-0.2,2.3-0.7,2.6c-1.3,1-2.3,1.5-3.1,1.4
	c-0.9-0.1-1.6,0-1.9,0.4c-0.6,0.5-1.3,0.7-2.1,0.6c-0.7-0.2-1.3,0-1.9,0.5c-0.5,0.4-0.9,0.6-1.2,0.6c-0.5-0.1-0.9,0.2-1.4,0.7
	c-0.6,0.8-1,1.4-1.1,1.9c-0.2,0.9-0.5,1.4-0.9,1.6c-0.5,0.5-1,1.2-1.3,2.1c-0.4,1-0.7,1.6-1.1,1.6c-0.5,0.4-1,1.5-1.3,3.4
	c-1,2.1-1.3,3.6-0.8,4.7c0.9,1.3,1.6,2.1,2.1,2.5c0.6,0.1,0.9,0.4,1,0.7c0.2,0.6,0.8,1,1.8,1c0.8,0.1,1.4,0.2,1.6,0.5
	c1.1,0.5,2,0.4,2.7-0.3c0.6-0.6,1.2-1,1.8-1c0.9-0.1,1.4-0.6,1.8-1.6c0.2-0.6,0.5-0.9,0.8-1.2c0.8-0.5,1.3-1.3,1.7-2.5
	c0.3-0.8,0.6-1.4,0.9-1.8c0.5-0.6,0.7-1.2,0.5-1.7c-0.1-0.6-0.8-1.3-2.3-2.1c-0.6-0.4-0.7-1.2-0.1-2.5c0.4-0.8,1.1-1.2,2.1-1.2
	c0.5-0.1,1.1-0.3,1.5-0.6c0.6-0.4,1.2-0.4,1.9-0.1c0.5,0.2,1.1,0.4,1.9,0.4c2.2,0.2,4,1.2,5.4,3c0.9,1.2,1.1,2,0.8,2.5
	c-0.4,0.6-0.4,1.4,0.1,2.4c0.3,0.9,0.3,1.9,0,2.8c-0.6,1.4-1.3,2.1-2.1,2.2c-2,0.6-3.5,1.5-4.5,2.5c-0.7,0.6-1.1,1.3-1.2,2
	c-0.2,0.4-0.4,0.8-0.5,1.3c0,0.2,0,0.4,0.1,0.5c0.2,0.8,0.3,1.7,0.3,2.9c0.1,0.1,0.2,0.2,0.2,0.2c0.2,0.5,0.5,0.7,0.8,0.8
	c0.8,0.3,1.3,0.9,1.7,1.9c0.3,0.8,0.8,1.4,1.3,2c0.5,0.3,1,1,1.3,2c0.6,1.6,1,3.1,1.1,4.3c0.2,1.6,0.4,2.8,0.7,3.6
	c0.4,1.1,0.6,2,0.5,2.8c-0.1,1.7-0.6,3.1-1.6,4.3c-0.6,0.6-1.3,1.1-2,1.4c-0.4,0.5-1,1-1.8,1.5c-1.5,0.9-2.7,2-3.7,3.3
	c-1.5,1.8-3.7,2.8-6.5,3c-1.1,0-2.2,0.2-3.2,0.5c-1.3,0.3-2.6,0.1-3.8-0.6c-1.6-0.9-3.1-1.2-4.5-1.2c-2.3,0.2-4.5-0.6-6.6-2.3
	C6.1,67.7,5.2,65.6,5.3,64.3 M25.9,45.9c-0.1,0-0.1,0-0.1,0.1c-0.6,0.5-1.6,0.8-2.8,0.9c-1.1,0.2-1.8,0.7-2.1,1.7
	c-0.6,1.5-1.7,2.7-3.2,3.6c-1,0.6-1.6,1.4-1.7,2.3c-0.2,1.3-0.6,2.3-1.4,3c-1,0.9-1.5,1.8-1.4,2.6c0.3,1.4,1.1,2.7,2.3,3.9
	c0.9,0.5,1.8,0.7,2.7,0.7c1.2,0.1,2,0.3,2.5,0.6c0.8,0.5,1.4,0.6,2,0.3c1.1-0.4,1.9-0.5,2.5-0.2c0.9,0.2,2,0,3.4-0.6
	c1.4-0.6,2.6-1.6,3.5-2.8V62c0-1.4,0.2-2.5,0.5-3.3c0.4-1,0.5-2.2,0.5-3.7c-0.2-1.4-0.5-2.4-1.1-2.9c-0.2-0.2-0.4-0.7-0.6-1.4
	c-0.3-0.9-0.7-1.6-1.3-2.1c-0.3-0.3-0.5-0.6-0.6-0.8c-0.1-0.2-0.2-0.5-0.5-0.7C28.1,46.6,27.1,46.2,25.9,45.9 M64.1,28.9
	c0.4-0.2,0.7-0.6,0.9-1c0.1-0.6,0.9-0.9,2.6-0.8c1.2,0.1,2.2,0.5,2.9,1.3c0.8,1.2,1.3,2.3,1.5,3.5c0.1,0.5,0.3,1.1,0.6,1.5
	c0.1,0.4,0.1,0.9,0,1.4c0.2,1.1,0.4,1.9,0.5,2.4c0.1,0.6,0,1.4-0.4,2.4c-0.6,1.3-1.2,2.1-2,2.3c-0.7,0.3-1.7-0.1-2.8-1.3
	c-1.7-1.1-2.6-2.2-2.8-3.4c-0.8-1.8-1.2-3-1.3-3.7c0-0.5-0.1-1.3-0.4-2.6C63.6,29.7,63.8,29,64.1,28.9 M80,82.4
	c0.6-0.1,1.7-0.3,3.1-0.3c1.3-0.1,2.3-0.3,2.8-0.6c1.6-0.5,3.2-0.3,4.8,0.6c1.3,0.7,2.1,1.9,2.3,3.5c0.1,1.8-0.4,3-1.6,3.7
	c-1.5,0.9-3.6,1.2-6.2,0.9C84.4,90,84,90,83.9,90.1c-0.5,0.1-1,0.1-1.5,0.1c-0.6,0-1.2,0.1-1.6,0.4c-1.4,0.5-3.2,0.4-5.3-0.1
	c-1.1-0.7-1.7-1.7-1.8-2.9c0.1-0.9,0.4-1.8,0.9-2.8c0.9-1.1,1.9-1.7,3.2-1.7C78.7,82.8,79.5,82.6,80,82.4 M108.3,93.6
	c0.4,1.9,0.4,3.5,0.1,4.7c-0.4,0.8-0.6,1.5-0.7,2.1c-0.3,0.8-0.6,1.4-0.9,1.7c-1.2,1-2.5,1.5-4,1.5c-1.3-0.1-2.5-0.7-3.4-2
	c-1-1.6-1.5-2.9-1.4-4c0.1-0.9,0-1.7-0.4-2.4c-0.2-0.6-0.2-1.3,0-2c0.2-0.8,0.2-1.7,0-2.7c-0.6-2.3-0.8-4.1-0.6-5.3
	c0.4-3.5,0.3-6.9-0.2-10.3c-0.1-0.9-0.1-1.8,0-2.6c0.1-0.9,0.1-2.1,0-3.8c-0.2-2-0.1-3.6,0.2-4.8c0.4-1.5,0.5-3.2,0.2-4.9
	c-0.2-0.9-0.4-2.1-0.5-3.5c-0.7-0.8-1.3-1.3-1.9-1.6c-1-0.9-1.7-1.6-2.1-1.9c-0.2-0.1-0.4-0.2-0.6-0.2c-2.4-0.7-4.9-0.8-7.3-0.4
	c-1,0.2-1.9,0.4-2.7,0.4c-0.9,0.1-1.5,0.3-1.8,0.6c-0.5,0.2-0.9,0.4-1.2,0.7c0.1,0.1,0.1,0.3,0.1,0.3c0,0.9,0,1.8,0.1,2.8
	c0.1,0.6,0,1.2-0.2,1.7c-0.1,0.1-0.1,0.2-0.1,0.5c0.6,0.8,1.3,1.4,2.1,2c0.1,0.1,0.2,0.2,0.2,0.2c1-0.1,2.2,0,3.7,0.2
	c1.5,0.1,2.8,0.1,4,0c1.3,0.1,2.5,0.5,3.7,1.3c1.3,0.8,2,2.1,2,3.7c0.1,1.4-0.7,2.5-2.3,3.3c-1.9,0.7-4,0.7-6.5-0.1
	c-1.7-0.5-3.5-0.5-5.4-0.2c-1.4,0.4-2.7,0.4-4,0.1h-0.1c-3.2,1.1-5.4,2-6.6,2.8l0.1,0.1c0.2,1.2,0,2.7-0.7,4.7
	C69,77.3,69,78,69.1,78.5V81c0,0.9,0.2,1.8,0.5,2.4c0.2,0.5,0.4,0.9,0.6,1.2c1,0.6,1.3,1.5,0.7,2.7c-0.5,1.2-1.2,2-2.2,2.4
	c-0.6,0.1-1.2,0.1-1.6,0c-0.5-0.2-1.1-0.4-1.8-0.6c-1.7-0.5-2.9-1.9-3.6-4.3c-0.6-3.2-0.8-5.8-0.6-7.7c0.2-0.9,0.3-1.7,0.3-2.4v-0.9
	c-0.1-0.5-0.3-1-0.6-1.3c-0.2-0.5-0.5-0.8-0.7-1.1c-0.7,0-1.3,0-1.9-0.1c-0.7-0.4-1.3-0.7-1.8-1c0,0.1,0,0.3,0.1,0.6
	c0,1-0.2,2.3-0.5,3.7c-0.5,1.2-0.8,2.3-0.7,3.3c-0.1,0.7-0.1,1.4-0.2,2.1c-0.2,0.6-0.3,1.2-0.2,1.9c0,0.7-0.2,1.4-0.5,2.2
	c-0.4,0.8-0.6,1.7-0.6,2.7c0,0.5-0.2,1.3-0.5,2.3c-1.2,2.9-1.9,5.2-2.2,6.9c-0.4,1.1-1.1,2.2-2,3.2c-1.4,1.2-2.7,1.9-3.9,2.1
	c-1,0.1-2.1-0.2-3.3-0.7c-1-0.8-1.7-1.7-2-2.7c-0.2-1-0.3-2-0.2-3c0.3-1,0.6-1.9,0.9-2.7c0.5-0.6,1.2-1.5,2-2.8c1.3-1.5,2-2.8,2-3.8
	c0.1-0.8,0.4-1.4,0.7-1.7c0.7-1.8,1.2-3.4,1.5-4.8c0.5-1,0.7-1.9,0.7-2.7c0-3.1,0.6-6.1,1.9-9c0.7-1.8,0.8-3.5,0.3-5.3
	c0.2-1.3,0.3-2.2,0.3-2.8c0.4-1.2,0.6-2.3,0.5-3.5c-0.3-1.9-0.4-3.7-0.1-5.4c0.1-1.5,0.1-4.3-0.3-8.6c-0.2-2.5-0.9-4.4-1.9-5.8
	c-1.4-2-2.2-4.6-2.3-7.7c-0.4-3.2,0.1-6.1,1.5-8.7c1.3-3.1,2.6-4.9,3.8-5.5c1.8-0.9,3.4-0.9,4.8,0.1c-0.1-0.1-0.1-0.1,0-0.1
	c0.3-0.1,0.9-0.1,1.6,0c0.5,0,1.2,0,2.1-0.1c1.8-0.6,3.6-0.8,5.3-0.5c1.3,0.3,2.2,0.4,3,0.1c1.6-0.8,2.9-1.1,3.6-0.8
	c0.5,0.1,1.1,0,1.8-0.4c1.9-0.8,3.5-0.9,4.9-0.5c1.5,0.4,3,0.4,4.5,0.1c2.4-0.4,4.5-0.4,6.3-0.1c1.1,0.1,2,0.2,2.7,0.1
	c0.9,0,1.6,0.2,2.1,0.7c0.9,0.5,1.7,0.8,2.7,0.7c1.3-0.1,2.3,0,3.1,0.4c1,0.5,1.7,1.1,2,1.6c0.4,0.9,1.2,1.6,2.4,2.1
	c2,1.1,3.3,2.8,4,5.2c0.3,1.3,0.3,2.7,0,4.2c-0.2,1-0.6,1.7-1.2,2.2c-0.6,0.6-0.9,1.3-1,2.1c-0.1,0.9-0.2,1.4-0.5,1.7
	c-0.4,0.9-0.5,1.7-0.2,2.4c0.2,0.7,0.2,1.5,0,2.6c-0.5,2.6-0.6,5.4-0.4,8.3c0,1.9-0.3,3.5-0.8,4.8c-0.2,0.7-0.2,1.7,0.1,2.9
	c0.2,1,0.2,2.2-0.1,3.6c-0.3,1.2-0.3,2.4,0,3.6c0.5,2.9,0.7,5.5,0.4,7.6c-0.5,3.6-0.3,6.2,0.5,7.9c1.5,4.5,2.3,8.1,2.4,10.9
	C107.5,90,107.8,91.9,108.3,93.6 M71.5,60.1c0-0.2,0-0.5,0.1-0.7c0.1-0.9,0-1.6-0.2-2.3v-1.5v-1.4c-0.2-0.3-0.5-0.5-0.8-0.6
	c-0.9-0.5-1.9-0.9-3.1-1.2h-0.1c-1.3,0.7-2.4,1.1-3.2,1.2c-0.9,0.1-1.8,0.2-2.6,0.2c-0.4,0.2-0.6,0.3-0.7,0.3
	c-0.9,0.5-1.4,1.1-1.8,1.6c-0.4,0.4-0.7,0.9-0.9,1.4c-0.1,1.6-0.3,2.8-0.6,3.7c-0.5,1-0.7,2.1-0.6,3.4c0.9-1,2-1.7,3.5-2
	c1.3-0.5,2.3-0.6,3.1-0.6c0.9,0.2,1.8,0.2,2.7,0c0.9-0.2,1.7-0.2,2.5,0h0.3C70.1,61.1,71,60.6,71.5,60.1 M96,43.7
	c0.5-0.5,0.9-0.9,1.2-1.4v-1.6c-0.1-1.7,0-3.2,0.4-4.4c0.2-1.3,0.3-3.3,0.2-5.9c-0.2-2.2-1.2-4.2-2.9-6.2C90.5,20.4,86.9,19,84,20
	c-1.6,0.5-3.6,0.4-6.2-0.1c-3.4-0.8-6.6-0.4-9.8,1c-1.5,0.6-2.6,0.9-3.3,0.8c-0.7-0.1-1.3-0.1-1.9,0c-0.3,0.1-0.5,0.1-0.6,0.2
	c-2.7,1.1-4.5,2-5.5,2.8c-0.1,0.2-0.2,0.4-0.2,0.7c-1.3,2.6-2,4.5-1.9,5.5c0.4,2.5,0.6,4.2,0.7,5.2c-0.1,2.4,0.2,4.4,1.2,5.8v0.2
	l0.2,0.1c1.4,1.2,2.6,2.1,3.7,2.8c0.1,0.1,0.3,0.3,0.4,0.3c1-0.3,1.9-0.4,2.7-0.3c1.1,0.2,2.3,0.2,3.5,0c1-0.3,2.1-0.3,3.1-0.1
	c1.3,0.2,2.3,0,3.1-0.6c0.9-0.3,2.3-0.4,4.3-0.3h0.1c0.8-0.5,1.3-0.8,1.7-1.2c0.2-0.3,0.5-0.6,0.8-0.9c0.1-0.5,0.3-1,0.6-1.3
	c0.3-0.6,0.6-1.3,0.8-2.3c0-0.7-0.1-1.7-0.3-2.9c-0.1-0.9-0.1-1.7,0-2.2c0.6-1.4,1-2.6,1.1-3.5c0-1.8,0.7-3.2,2.1-4.2
	c1.6-1.2,2.8-1.7,3.8-1.5c0.9,0.2,1.6,0.9,2.1,1.9c0.6,1.3,0.9,2.8,0.8,4.4c-0.2,1.2-0.5,2.4-0.8,3.4c-0.5,1.1-1.1,2.1-1.9,3
	c-0.9,1-1.3,2.5-1.4,4.4c-0.1,0.4-0.2,0.8-0.2,1.3c0.2,0.2,0.5,0.5,0.7,0.8c0.1,0,0.2,0.1,0.2,0.3c1-0.1,2.3,0,3.8,0.2
	c1.4,0.2,2.7,0.2,3.9,0.1c0.1,0,0.3,0.1,0.4,0.1c0.1-0.2,0.2-0.3,0.2-0.3S95.8,43.8,96,43.7"/>
<g transform="translate(39.000000, 0.000000)">
	<g id="Clip-4">
	</g>
	<defs>
		<filter id="Adobe_OpacityMaskFilter" filterUnits="userSpaceOnUse" x="93.4" y="0" width="93.9" height="107">
			<feColorMatrix  type="matrix" values="1 0 0 0 0  0 1 0 0 0  0 0 1 0 0  0 0 0 1 0"/>
		</filter>
	</defs>
	<mask maskUnits="userSpaceOnUse" x="93.4" y="0" width="93.9" height="107" id="mask-3_2_">
		<g class="st1">
			<polygon id="path-2_2_" class="st2" points="93.4,0 187.3,0 187.3,107 93.4,107 			"/>
		</g>
	</mask>
	<path id="Fill-3" class="st3" d="M135.1,18.8c2.9-0.6,5.9-0.7,8.8-0.1c2.3,0.6,4.2,0.7,6,0.2c2.1-0.5,3.9-0.4,5.3,0.4
		c1.4,1,2.1,2.4,2.2,4.1c-0.3,1.6-1,2.7-2,3.3c-1.4,0.6-2.7,0.7-4,0.1c-2.4-0.6-4.6-0.7-6.4-0.1c-2.3,0.8-4.4,0.9-6.3,0.1
		c-1.9-0.5-4.6-0.3-7.8,0.5c-2.4,0.8-4.5,0.8-6.2,0c-1.3-1-1.8-2.3-1.8-3.7c0.2-1.4,0.7-2.6,1.8-3.6c1-1,2.4-1.3,4.1-0.7
		C130.2,19.7,132.4,19.6,135.1,18.8 M119.6,11.2c-2.3-0.6-3.4-1.8-3.4-3.5c-0.1-1.7,0.5-3,1.8-4c1.5-1.2,3.3-1.9,5.5-2
		c1.3-0.1,2.7-0.3,4.2-0.6c2-0.8,4.3-1.2,6.9-1.2c3.2-0.1,5.7,0.1,7.6,0.4c2.4,0.6,5,0.8,7.6,0.5c4.1-0.5,7.7-0.1,10.8,1.4
		c0.8,0.6,1.9,0.8,3.4,0.7c1.7,0.1,3.3,0.8,5,2.2c1.9,1.2,3,2.2,3.1,3.2c0.1,0.9,0.5,1.7,1.3,2.4c1,1.1,1.5,3.1,1.4,5.9
		c0.2,1.4,0.6,2.6,1.1,3.6c0.6,1,0.9,2.6,0.9,4.8v7c-0.1,3.3-0.9,5.6-2.4,7.1c-1.2,1.8-3.1,3.2-5.7,4.2c-1.9,1.1-4.3,1.5-7.4,1.2
		c-2.1-0.1-3.9-0.1-5.4,0.2c-1.7,0.6-3.3,0.7-4.8,0.2c-1.4-0.6-2.8-0.7-4.3-0.2c-1.7,0.9-3.3,0.9-4.8,0.2c-1.1-0.5-2.3-0.5-3.5-0.2
		c-0.4,1.4-0.9,2.7-1.6,4c-0.7,1.1-1.7,2.1-3.1,3.1c-0.7,0.6-1.3,1.2-1.9,2c-0.5,1.2-1.3,1.9-2.2,2.2c-1.1,0.4-2,1-2.8,1.7
		c-1.3,1.4-2.8,2.4-4.6,2.9c-1.3,0.6-2.6,1.3-3.9,2.1c-1.1,0.9-2.7,1.3-4.9,1.4c-1.9,0.1-3.5,0.6-4.9,1.5c-1.5,0.7-2.6,1-3.4,0.9
		c-0.9-0.1-1.7,0-2.2,0.2c-1.9,0.7-3.8,0.8-5.7,0.2c-1.6-0.5-2.4-1-2.5-1.5c-0.1-0.6-0.3-1-0.6-1.1c-0.3-0.2-0.5-0.7-0.6-1.5
		c-0.1-1.2,0.2-2.3,1-3.3c0.7-0.7,1.8-1.3,3.2-1.7c1.5-0.4,3-0.4,4.4-0.1c1,0.2,2.3,0.3,3.8,0.3c1.5-0.2,2.8-0.6,4.1-1.3
		c1.2-0.9,2.5-1.4,4-1.5c1.5-0.2,2.8-0.9,4-1.9c1.1-0.8,2.3-1.4,3.5-1.6c1.8-0.9,3.3-2,4.5-3.4c0.5-0.9,0.9-1.7,1.4-2.2
		c-2-0.6-3.8-0.5-5.5,0.2c-1.2,0.5-3,0.3-5.6-0.5c-2.7-0.7-4.4-1.7-4.9-2.9c-0.2-1.2-1.1-2.4-2.6-3.4c-1.2-0.7-1.6-2.3-1.4-4.7
		c-0.1-3.7-0.3-6.6-0.6-9c-0.4-1.4-0.4-2.8-0.1-4.2c0.1-0.9,0.2-1.9,0.1-2.9c-0.1-2.1,0.3-4,1.1-5.6c0.5-1.2,1.2-2,2-2.6
		c0.7-0.6,1.5-0.8,2.2-0.9c0.9,0.2,1.8,0.4,2.5,0.7c0.7,0.6,1.2,1.5,1.5,2.7c0.5,1.4,0.7,3.6,0.3,6.8c-0.5,3.7-0.6,6.6-0.3,8.5
		c0.5,2.5,1.1,4.2,1.9,5.2c0.9,1.6,2.4,2.7,4.4,3.3c2.9,0.8,6.1,0.8,9.6-0.2c4.5-1.3,9-1.5,13.2-0.5c2.7,0.6,5.2,0.5,7.3-0.2
		c2.1-0.6,4.5-0.9,7.1-0.8c2.2,0.3,4-0.3,5.3-1.8c1-0.8,1.9-2.2,2.6-4.3c0.3-2.3,0.1-4.4-0.6-6.1c-0.6-1.6-0.8-3-0.8-4.2
		c-0.1-0.8-0.3-1.7-0.6-2.7c-0.9-1.2-1.5-2-1.5-2.4c-0.3-0.9-0.7-1.6-1.3-1.9c-0.8-0.3-1.6-0.7-2.1-1.2c-0.8-1-4.3-1.7-10.7-2
		c-4.4,0.1-8,0-10.9-0.3c-3.9-0.8-7.5-0.4-10.9,1.3C125,11.2,122.2,11.7,119.6,11.2 M157.8,106.1c-1.9,0.8-3.4,1.1-4.5,0.8
		c-1.3-0.5-2.4-0.7-3.2-0.8c-1.6-0.2-2.7-0.7-3.1-1.5c-0.3-0.9-0.8-1.7-1.5-2.4c-0.7-0.6-1.1-1.3-1.2-2.1c-0.2-0.6-0.5-1.2-0.9-1.7
		c-0.9-1.2-1.3-2.4-1.4-3.6c-0.1-1.3,0.2-2.2,0.9-2.7c1.1-0.8,2.5-0.7,4.2,0.2c0.8,0.4,1.7,1.1,2.7,1.9c0.6,0.3,1.1,0.5,1.6,0.5
		c1.5,0.5,3.7,0.3,6.6-0.5c3.7-0.7,6.1-1.6,7.2-2.6c0.4-0.6,0.9-1,1.6-1c1.6-0.7,3.4-2.3,5.4-4.7c0.7-1,1.3-1.8,1.9-2.3
		c1.4-1.4,2.6-3.7,3.5-6.8c0.6-3.3,0.6-5.6-0.1-7c-0.8-2.5-2.4-4.7-4.5-6.7c-0.4-0.2-0.7-0.4-1.1-0.5c-1.1,0.1-1.9,0.1-2.4,0.2
		c-1.2,0.2-2.1,0.4-2.8,0.5c-0.8,0.2-1.4,0.3-1.9,0.3c-0.5-0.1-0.8-0.8-1.2-2.3c-0.5-1.6-1-2.9-1.5-4.1c-0.3-0.5-0.5-0.8-0.6-1.1
		C161,56,160.6,56,160,56c-2-0.4-3.4-0.4-4.2-0.1c-1.5,0.4-2.6,0.5-3.4,0.2h-0.2c-0.4,1.2-1.3,2.2-2.8,3.1c-0.9,0.5-1.6,1.2-2.1,2
		c-1.6,1.3-3.1,2.5-4.6,3.5c-1.1,0.6-2.1,1.4-2.8,2.4c-1.7,1.5-3.2,2.6-4.5,3.3c-0.8,0.4-1.6,1-2.3,1.8c-1.2,1.2-2.4,2.1-3.6,2.8
		c-1,0.5-1.9,1.1-2.7,2.1c-0.8,0.9-2,1.6-3.8,2.1c-0.9,0.4-2,1.2-3.2,2.3c-1,0.6-2.6,1.4-4.8,2.3c-2.9,1.3-4.9,2-6.1,2
		c-0.6-0.1-1.7,0.4-3.2,1.4c-1.6,1.1-3.3,1.7-4.9,1.8c-2,0.2-3.6-0.1-4.6-0.8c-1.4-0.9-2.3-2.1-2.6-3.8c-0.2-1.1,0.4-2.3,1.8-3.7
		c1.3-1.3,2.9-1.9,4.8-2c3.4-0.3,5.7-0.9,6.9-1.6c0.8-0.5,2-0.8,3.7-1.2c4-1.3,6.6-2.5,7.7-3.5c0.7-0.8,1.7-1.4,2.9-1.9
		c1.1-0.5,2-1.2,2.8-2c1.5-1,2.7-1.7,3.7-2.2c1.7-1,3.8-2.2,6.2-3.7c2-1.3,3.3-2.3,4.1-2.8c0.6-0.7,1.3-1.3,2.1-1.9
		c1.7-0.9,3.3-2,4.8-3.1l-0.1-0.1c-1.1-0.6-1.6-1.8-1.6-3.5c0.1-1.6,1-2.8,2.7-3.5c1.7-0.5,3.3-0.8,4.8-0.7c1.5,0.1,3.1,0.3,4.8,0.6
		c1.8,0.6,3.2,0.8,4.1,0.5c0.6-0.2,1.5-0.3,2.5-0.2c0.9,0.5,2,0.7,3.3,0.6c0.8-0.2,1.7,0.1,2.7,0.8c1.7,1.3,3.5,2.2,5.4,2.9
		c1.7,0.7,2.8,1.6,3.3,2.6c1.1,1.2,2.6,2.6,4.6,4.1c0.9,0.6,1.3,1.5,1.4,2.7c0.5,0.9,1.1,2,1.8,3.5c0.8,0.9,1.1,2,1,3.3
		c0.2,0.9,0.5,1.8,1.1,2.4c0.4,0.6,0.4,1.3,0.1,2c-0.5,0.8-0.5,1.9-0.2,3.1c0.5,0.9,0.3,2.6-0.7,5.3c-0.1,0.6-0.2,1.4-0.2,2.4
		c0,1.3-0.8,3.2-2.2,5.5c-2,2.3-3.3,3.5-4,3.6c-0.5,0.4-1.1,1.1-1.5,2.1c-1.2,1.5-3,3.1-5.4,4.5c-4.8,3.3-8.1,5.1-9.8,5.4
		C161.5,104.8,159.7,105.3,157.8,106.1 M126.1,88.1c0.8-0.9,1.8-1.7,3.1-2.2c1.2-0.5,2.2-1.3,3.2-2.2c1.6-1.2,3-2,4-2.6
		c1.8-1.1,4-2.5,6.7-4.2c2.1-1.5,3.6-2.6,4.6-3.1c0.5-0.9,1.3-1.7,2.2-2.2c2.2-1.3,4.3-2.8,6.2-4.5c1.6-1.1,2.9-1.5,4.1-1.2
		c1.8,0.5,2.7,1.5,2.6,3.2c-0.3,1.5-1.3,2.8-3.1,3.8c-0.9,0.5-1.6,1.3-2.3,2.3c-1.8,1.5-3.4,2.8-4.9,4c-1.3,0.6-2.3,1.6-3.1,2.8
		c-1.8,1.7-3.4,2.9-4.9,3.6c-0.4,0.8-0.6,1.6-0.7,2.6c-0.3,1.3-0.5,2-0.6,2.1c-0.6-0.1-1.3-0.1-2,0c-0.5,0.1-1.3,0.2-2.3,0.2
		c-0.3,0-0.5,0-0.6,0.1c-0.1,0-0.2,0-0.2,0.1c-1.1,0.7-2,1.6-2.8,2.6c-0.8,0.8-2.2,1.6-4.1,2.3c-1.1,0.5-2.3,1.3-3.5,2.6
		c-1,0.8-2.7,1.7-5.2,2.7c-3.2,1.6-5.4,2.4-6.7,2.4c-0.7-0.1-1.9,0.5-3.5,1.6c-1.9,1.2-3.7,1.9-5.4,2c-2.2,0.2-3.9,0-5-0.7
		c-1.5-0.9-2.5-2.3-2.9-4.2c-0.2-1.3,0.4-2.7,1.9-4.2c1.4-1.4,3.2-2.1,5.3-2.2c3.6-0.5,6.1-1.2,7.5-2.1c0.9-0.6,2.3-1.1,4.2-1.4
		C122.1,90.5,124.9,89.1,126.1,88.1"/>
</g>
<polygon id="Fill-5" class="st4" points="319,62.9 352.3,62.9 352.3,71.6 331.5,71.6 331.5,78 350.8,78 350.8,86.3 331.5,86.3 
	331.5,94.3 352.9,94.3 352.9,103.6 319,103.6 "/>
<polygon id="Fill-7" class="st4" points="359.7,62.9 397,62.9 397,72.9 384.5,72.9 384.5,103.6 372.3,103.6 372.3,72.9 359.7,72.9 
	"/>
<path id="Fill-9" class="st4" d="M468.8,88.1l4.4-14.6l4.4,14.6H468.8z M482.3,103.6h13.1l-15.2-40.7h-13.7l-15.2,40.7h12.8l2-6.7
	h14.1L482.3,103.6z"/>
<path id="Fill-11" class="st4" d="M502.2,88.7l12.1-0.8c0.3,2,0.8,3.6,1.6,4.6c1.3,1.7,3.2,2.6,5.6,2.6c1.8,0,3.2-0.5,4.2-1.3
	c1-0.9,1.5-1.9,1.5-3.1c0-1.1-0.5-2.1-1.4-3c-0.9-0.9-3.1-1.7-6.5-2.5c-5.6-1.3-9.6-3-11.9-5.2c-2.4-2.2-3.6-4.9-3.6-8.2
	c0-2.2,0.6-4.2,1.8-6.2c1.2-2,3.1-3.5,5.5-4.6c2.5-1.1,5.9-1.7,10.1-1.7c5.3,0,9.3,1,12,3c2.8,2,4.4,5.3,4.9,9.7l-12,0.7
	c-0.3-1.9-1-3.3-2-4.2c-1-0.9-2.4-1.3-4.2-1.3c-1.5,0-2.6,0.3-3.4,1c-0.7,0.6-1.1,1.4-1.1,2.4c0,0.7,0.3,1.3,1,1.8
	c0.6,0.6,2,1.1,4.3,1.6c5.5,1.2,9.5,2.5,11.9,3.8c2.4,1.3,4.1,2.9,5.3,4.7c1.1,1.9,1.6,4,1.6,6.3c0,2.7-0.7,5.3-2.2,7.6
	c-1.5,2.3-3.5,4.1-6.1,5.3c-2.6,1.2-5.9,1.8-9.9,1.8c-7,0-11.8-1.4-14.5-4.2C504.1,96.6,502.6,93,502.2,88.7"/>
<g transform="translate(160.000000, 18.000000)">
	<g id="Clip-14">
	</g>
	<defs>
		<filter id="Adobe_OpacityMaskFilter_1_" filterUnits="userSpaceOnUse" x="384.9" y="42.4" width="34.2" height="41.5">
			<feColorMatrix  type="matrix" values="1 0 0 0 0  0 1 0 0 0  0 0 1 0 0  0 0 0 1 0"/>
		</filter>
	</defs>
	<mask maskUnits="userSpaceOnUse" x="384.9" y="42.4" width="34.2" height="41.5" id="mask-5_2_">
		<g class="st5">
			<polygon id="path-4_2_" class="st2" points="384.9,42.4 419.1,42.4 419.1,83.9 384.9,83.9 			"/>
		</g>
	</mask>
	<polygon id="Fill-13" class="st6" points="384.9,42.4 418.5,42.4 418.5,51.3 397.5,51.3 397.5,57.9 416.9,57.9 416.9,66.3 
		397.5,66.3 397.5,74.5 419.1,74.5 419.1,83.9 384.9,83.9 	"/>
</g>
<polygon id="Fill-15" class="st4" points="264.7,49.3 277,49.3 293,79.4 293,49.3 305.4,49.3 305.4,103.6 293,103.6 277.1,73.6 
	277.1,103.6 264.7,103.6 "/>
<polygon id="Fill-17" class="st4" points="407.2,49.3 443.9,49.3 443.9,60.9 421,60.9 421,69.5 442.2,69.5 442.2,80.6 421,80.6 
	421,91.3 444.6,91.3 444.6,103.6 407.2,103.6 "/>
</svg>
