<?xml version="1.0" encoding="UTF-8" standalone="no"?>
<!-- Created with Inkscape (http://www.inkscape.org/) -->

<svg
   xmlns:dc="http://purl.org/dc/elements/1.1/"
   xmlns:cc="http://creativecommons.org/ns#"
   xmlns:rdf="http://www.w3.org/1999/02/22-rdf-syntax-ns#"
   xmlns:svg="http://www.w3.org/2000/svg"
   xmlns="http://www.w3.org/2000/svg"
   version="1.1"
   width="708.66248"
   height="122.125"
   id="svg2"
   xml:space="preserve"><metadata
     id="metadata8"><rdf:RDF><cc:Work
         rdf:about=""><dc:format>image/svg+xml</dc:format><dc:type
           rdf:resource="http://purl.org/dc/dcmitype/StillImage" /><dc:title></dc:title></cc:Work></rdf:RDF></metadata><defs
     id="defs6" /><g
     transform="matrix(1.25,0,0,-1.25,0,122.125)"
     id="g10"><g
       transform="scale(0.1,0.1)"
       id="g12"><path
         d="m 1538.95,427.949 c 0,159.746 102.25,162.61 240.05,162.61 l 15.71,0 c 134.42,0 208.05,-22.629 208.05,-177.192 l 0,-107.637 c 0,-129.5 -33.4,-184.605 -212.82,-184.605 l -34.28,0 c -170.23,0 -216.71,46.797 -216.71,175.699 l 0,131.125 z m 0,-343.3709 2.77,0 C 1583.97,28.8008 1661.8,0 1757.44,0 l 49.46,0 c 200.05,0 346.42,50.9375 346.33,281.543 l 0,140.809 c 0,213.41 -94.21,289.347 -340.08,289.347 l -76.41,0 c -107.38,0 -167.15,-36.426 -195.18,-75.801 l -2.61,0 0,341.094 -150.45,0 0,-955.1443 150.45,0 0,62.7304"
         id="path14"
         style="fill:#1d1b17;fill-opacity:1;fill-rule:nonzero;stroke:none" /><path
         d="m 3977.13,694.746 -202.01,0 0,61.594 c 0,58.797 38.54,106.121 120.7,106.121 l 150.03,-0.156 0,114.738 -199.5,-0.051 c -120.58,0 -221.8,-62.762 -221.8,-221.277 l 0,-60.969 -81,0 0,-120.859 81,0 0,-573.60575 150.57,0 0,573.60575 202.01,0 0,120.859"
         id="path16"
         style="fill:#1d1b17;fill-opacity:1;fill-rule:nonzero;stroke:none" /><path
         d="m 3107.52,221.75 c 0,-158.5742 101.27,-221.46875 221.92,-221.46875 l 186.83,0 0,120.89075 -150.14,-0.047 c -82.05,0 -108.09,41.07 -108.09,99.922 l 0,352.84 202.16,0 0,120.859 -202.16,0 0,282.297 -150.42,0 0,-282.297 -81.02,0 0,-120.859 81.02,0 -0.1,-352.137"
         id="path18"
         style="fill:#1d1b17;fill-opacity:1;fill-rule:nonzero;stroke:none" /><path
         d="m 4840.57,824.227 150.48,0 0,152.816 -150.48,-0.051 0,-152.765"
         id="path20"
         style="fill:#1d1b17;fill-opacity:1;fill-rule:nonzero;stroke:none" /><path
         d="m 4840.46,0.128906 150.59,0 0,711.570094 -150.48,0 -0.11,-711.570094"
         id="path22"
         style="fill:#1d1b17;fill-opacity:1;fill-rule:nonzero;stroke:none" /><path
         d="m 2378.95,440.293 c 0,136.672 63.66,150.312 218.92,150.312 l 30.41,-0.046 c 174.66,0 197.19,-43.957 197.19,-133.832 l 0.15,-38.153 -446.67,-0.176 0,21.895 z m 164.07,-440.164094 135.33,0 C 2860.61,0.128906 2943.9,58 2965.2,159.172 l -133.87,40.547 c -22.21,-62.344 -75.82,-78.594 -193.78,-78.594 l -34.74,0 c -192.64,0 -223.95,24.352 -224.14,176.324 l 0.28,0.141 597.09,0 0,131.637 c 0,238.175 -123.71,282.472 -321.39,282.472 l -73.6,0 c -156.48,0 -346.19,-27.39 -346.19,-269.765 l 0,-168.016 C 2234.86,38.4688 2399.26,0 2543.02,0.128906"
         id="path24"
         style="fill:#1d1b17;fill-opacity:1;fill-rule:nonzero;stroke:none" /><path
         d="m 4556.52,212.715 c 0,-66.824 -45.8,-91.59 -223.98,-91.59 l -40.24,0 c -151.42,0 -170.64,29.195 -170.64,86.875 l 0.05,37.527 c -0.05,66.848 37.7,92.078 163.08,92.078 l 67,0 c 114.25,0 204.73,-22.417 204.73,-97.261 l 0,-27.629 z m -187,498.984 -56.25,0 c -204.09,0 -292.55,-62.812 -298.28,-156.875 l 143.44,-47.551 c 6.59,64.27 80.36,83.286 192.21,83.286 166.33,0 205.65,-9.641 205.65,-129.797 l 0,-65.285 -2.97,0 c -37.6,50.128 -88.93,63.078 -219.24,63.078 l -58.81,0 c -192.15,0 -304.03,-47.84 -304.03,-199.856 l 0,-43.457 C 3971.43,89.7344 4019.21,0.128906 4219.79,0.128906 l 145.98,0 c 145.19,0 159.74,23.824194 188.41,65.390594 l 2.34,0 0,-65.23825 150.37,0 0,457.38675 c 0,199.246 -132.29,254.031 -337.37,254.031"
         id="path26"
         style="fill:#1d1b17;fill-opacity:1;fill-rule:nonzero;stroke:none" /><path
         d="m 5449.96,711.699 c -66.82,0 -135.05,-25.332 -177.26,-94.531 l -5.41,0 0,94.531 -142.53,-0.097 0,-711.473094 150.51,0 0,428.113094 c 0,86.375 49.64,162.363 166.49,162.363 83.54,0 123.81,-22.675 132.76,-46.457 l 94.77,63.938 c -23.36,64.734 -86.15,103.613 -219.33,103.613"
         id="path28"
         style="fill:#1d1b17;fill-opacity:1;fill-rule:nonzero;stroke:none" /><path
         d="m 1111.35,974.59 -389.553,0 0,-195.469 -208.192,0 402.981,-470.754 403.114,470.754 -208.35,0 0,195.469"
         id="path30"
         style="fill:#1d1b17;fill-opacity:1;fill-rule:nonzero;stroke:none" /><path
         d="m 0,200.137 208.281,0 0,-195.65653 389.532,0 0,195.65653 208.292,0 L 403.164,670.742 0,200.137"
         id="path32"
         style="fill:#1d1b17;fill-opacity:1;fill-rule:nonzero;stroke:none" /></g></g></svg>