<svg version="1.1" id="Layer_1" xmlns="http://www.w3.org/2000/svg" xmlns:xlink="http://www.w3.org/1999/xlink" x="0px" y="0px" viewBox="0 0 203.9 51.9" style="enable-background:new 0 0 203.9 51.9;" xml:space="preserve">
 <style type="text/css">
  .st0{fill:#0000FF;}
 </style>
 <g>
  <path class="st0" d="M21.5,29.9c-0.7,3.4-2,5.9-4,7.8c-2,1.8-4.2,2.7-6.7,2.7c-2.9,0-5.4-1.2-7.6-3.6C1.1,34.3,0,31,0,26.9
		c0-4,1.2-7.3,3.6-9.8c2.4-2.5,5.2-3.8,8.6-3.8c2.5,0,4.6,0.7,6.2,2c1.6,1.3,2.4,2.7,2.4,4.1c0,0.7-0.2,1.3-0.7,1.7
		c-0.5,0.4-1.1,0.7-1.9,0.7c-1.1,0-1.9-0.4-2.5-1.1c-0.3-0.4-0.5-1.1-0.6-2.2c-0.1-1.1-0.5-1.9-1.1-2.5c-0.6-0.6-1.5-0.8-2.7-0.8
		c-1.9,0-3.3,0.7-4.5,2.1c-1.5,1.8-2.3,4.2-2.3,7.2c0,3,0.7,5.7,2.2,8.1c1.5,2.3,3.5,3.5,6.1,3.5c1.8,0,3.5-0.6,4.9-1.9
		c1-0.9,2-2.4,3-4.6L21.5,29.9z">
  </path>
  <path class="st0" d="M32.6,13.3v5.7c2.1-3.8,4.3-5.7,6.6-5.7c1,0,1.9,0.3,2.5,0.9c0.7,0.6,1,1.3,1,2.2c0,0.7-0.2,1.3-0.7,1.8
		c-0.5,0.5-1.1,0.8-1.7,0.8c-0.6,0-1.4-0.3-2.2-1c-0.8-0.6-1.4-1-1.8-1c-0.3,0-0.7,0.2-1.1,0.6c-0.8,0.8-1.7,2-2.6,3.8v12.2
		c0,1.4,0.2,2.5,0.5,3.2c0.2,0.5,0.7,0.9,1.3,1.3c0.6,0.3,1.5,0.5,2.6,0.5v1H24v-1c1.3,0,2.3-0.2,2.9-0.6c0.5-0.3,0.8-0.8,1-1.4
		c0.1-0.3,0.1-1.2,0.1-2.7V24c0-3-0.1-4.7-0.2-5.3s-0.3-1-0.7-1.2c-0.3-0.3-0.7-0.4-1.2-0.4c-0.6,0-1.2,0.1-1.9,0.4l-0.3-1l7.7-3.1
		H32.6z">
  </path>
  <path class="st0" d="M58.6,35.9c-2.6,2-4.3,3.2-4.9,3.5c-1,0.5-2.1,0.7-3.2,0.7c-1.8,0-3.2-0.6-4.4-1.8c-1.1-1.2-1.7-2.8-1.7-4.8
		c0-1.2,0.3-2.3,0.8-3.2c0.8-1.3,2.1-2.4,4-3.6s5-2.5,9.4-4.1v-1c0-2.5-0.4-4.3-1.2-5.2s-2-1.4-3.5-1.4c-1.2,0-2.1,0.3-2.8,0.9
		c-0.7,0.6-1.1,1.4-1.1,2.2l0.1,1.6c0,0.9-0.2,1.5-0.7,2c-0.4,0.5-1,0.7-1.7,0.7c-0.7,0-1.2-0.2-1.7-0.7c-0.4-0.5-0.7-1.1-0.7-2
		c0-1.6,0.8-3.1,2.4-4.4c1.6-1.3,3.9-2,6.9-2c2.3,0,4.1,0.4,5.6,1.1c1.1,0.6,1.9,1.5,2.4,2.7c0.3,0.8,0.5,2.4,0.5,4.9v8.7
		c0,2.4,0,3.9,0.1,4.5c0.1,0.5,0.2,0.9,0.5,1.1c0.2,0.2,0.5,0.3,0.7,0.3c0.3,0,0.6-0.1,0.8-0.2c0.4-0.2,1.1-0.9,2.3-2v1.6
		c-2.1,2.8-4.1,4.2-6,4.2c-0.9,0-1.6-0.3-2.2-0.9C58.9,38.5,58.6,37.4,58.6,35.9z M58.6,34.1v-9.7c-2.8,1.1-4.6,1.9-5.4,2.4
		c-1.5,0.8-2.5,1.7-3.1,2.6c-0.6,0.9-0.9,1.9-0.9,2.9c0,1.3,0.4,2.4,1.2,3.3s1.7,1.3,2.8,1.3C54.4,36.9,56.3,36,58.6,34.1z">
  </path>
  <path class="st0" d="M78.2,13.3v20.5c0,1.6,0.1,2.7,0.3,3.2c0.2,0.5,0.6,0.9,1,1.2s1.3,0.4,2.5,0.4v1H69.7v-1
		c1.2,0,2.1-0.1,2.5-0.4c0.4-0.2,0.8-0.6,1-1.2s0.4-1.6,0.4-3.2V24c0-2.8-0.1-4.6-0.3-5.4c-0.1-0.6-0.3-1-0.6-1.2
		c-0.3-0.2-0.7-0.3-1.1-0.3c-0.5,0-1.2,0.1-1.9,0.4l-0.4-1l7.7-3.1H78.2z M75.9,0c0.8,0,1.4,0.3,2,0.8c0.5,0.5,0.8,1.2,0.8,2
		s-0.3,1.4-0.8,2c-0.5,0.6-1.2,0.8-2,0.8s-1.4-0.3-2-0.8s-0.8-1.2-0.8-2s0.3-1.4,0.8-2C74.4,0.3,75.1,0,75.9,0z">
  </path>
  <path class="st0" d="M92.1,30.3c-1.6-0.8-2.8-1.8-3.6-3.2s-1.3-2.9-1.3-4.5c0-2.5,1-4.7,2.9-6.5c1.9-1.8,4.3-2.7,7.3-2.7
		c2.4,0,4.5,0.6,6.3,1.8h5.4c0.8,0,1.3,0,1.4,0.1c0.1,0,0.2,0.1,0.3,0.2c0.1,0.2,0.2,0.5,0.2,0.9c0,0.5,0,0.8-0.1,1
		c-0.1,0.1-0.2,0.2-0.3,0.2s-0.6,0.1-1.4,0.1h-3.3c1,1.3,1.6,3,1.6,5.1c0,2.4-0.9,4.4-2.7,6.1c-1.8,1.7-4.3,2.5-7.3,2.5
		c-1.3,0-2.6-0.2-3.9-0.6c-0.8,0.7-1.4,1.3-1.7,1.9c-0.3,0.5-0.4,1-0.4,1.3c0,0.3,0.2,0.6,0.5,0.9c0.3,0.3,0.9,0.5,1.8,0.6
		c0.5,0.1,1.8,0.1,3.9,0.2c3.8,0.1,6.3,0.2,7.4,0.4c1.7,0.2,3.1,0.9,4.1,1.9c1,1,1.5,2.3,1.5,3.8c0,2.1-1,4.1-3,5.9
		c-2.9,2.7-6.7,4.1-11.3,4.1c-3.6,0-6.6-0.8-9.1-2.4c-1.4-0.9-2.1-1.9-2.1-2.9c0-0.4,0.1-0.9,0.3-1.3c0.3-0.7,1-1.6,1.9-2.9
		c0.1-0.2,1.1-1.2,2.8-3c-1-0.6-1.6-1.1-2-1.5c-0.4-0.5-0.6-1-0.6-1.5c0-0.6,0.3-1.4,0.8-2.3C88.9,33.1,90.2,31.9,92.1,30.3z
		 M91.8,39.6c-0.9,0.9-1.5,1.8-2,2.6s-0.7,1.6-0.7,2.3c0,0.9,0.5,1.7,1.6,2.3c1.9,1.2,4.5,1.7,8,1.7c3.3,0,5.8-0.6,7.4-1.8
		c1.6-1.2,2.4-2.4,2.4-3.8c0-1-0.5-1.7-1.4-2.1c-1-0.4-2.9-0.6-5.7-0.7C97.3,40.1,94,39.9,91.8,39.6z M96.9,14.7
		c-1.4,0-2.5,0.5-3.5,1.6s-1.4,2.8-1.4,5c0,2.9,0.6,5.2,1.9,6.8c1,1.2,2.2,1.8,3.7,1.8c1.4,0,2.6-0.5,3.5-1.6c0.9-1.1,1.4-2.7,1.4-5
		c0-3-0.6-5.3-1.9-6.9C99.6,15.3,98.4,14.7,96.9,14.7z">
  </path>
  <path class="st0" d="M130.2,13.3V22h-0.9c-0.7-2.7-1.6-4.6-2.7-5.6c-1.1-1-2.5-1.5-4.2-1.5c-1.3,0-2.3,0.3-3.1,1s-1.2,1.4-1.2,2.3
		c0,1,0.3,1.9,0.9,2.7c0.6,0.8,1.7,1.6,3.5,2.4l4.1,2c3.8,1.8,5.7,4.3,5.7,7.3c0,2.3-0.9,4.2-2.6,5.6c-1.8,1.4-3.7,2.1-5.9,2.1
		c-1.6,0-3.3-0.3-5.3-0.8c-0.6-0.2-1.1-0.3-1.5-0.3c-0.4,0-0.8,0.2-1,0.7h-0.9v-9.1h0.9c0.5,2.6,1.5,4.6,3,5.9s3.1,2,4.9,2
		c1.3,0,2.3-0.4,3.1-1.1c0.8-0.8,1.2-1.7,1.2-2.7c0-1.3-0.5-2.4-1.4-3.2c-0.9-0.9-2.7-2-5.4-3.3c-2.7-1.3-4.5-2.5-5.3-3.6
		c-0.8-1.1-1.3-2.4-1.3-4c0-2.1,0.7-3.9,2.2-5.3c1.4-1.4,3.3-2.1,5.6-2.1c1,0,2.2,0.2,3.6,0.6c0.9,0.3,1.6,0.4,1.9,0.4
		c0.3,0,0.5-0.1,0.7-0.2c0.2-0.1,0.4-0.4,0.6-0.9H130.2z">
  </path>
  <path class="st0" d="M144.7,0v33.8c0,1.6,0.1,2.7,0.3,3.2c0.2,0.5,0.6,0.9,1.1,1.2c0.5,0.3,1.4,0.4,2.7,0.4v1h-12.5v-1
		c1.2,0,2-0.1,2.4-0.4s0.8-0.6,1-1.2s0.4-1.6,0.4-3.2V10.7c0-2.9-0.1-4.6-0.2-5.3s-0.3-1.1-0.6-1.4c-0.3-0.2-0.7-0.4-1.1-0.4
		c-0.5,0-1.1,0.1-1.8,0.4l-0.5-1l7.6-3.1H144.7z">
  </path>
  <path class="st0" d="M160.6,13.3v20.5c0,1.6,0.1,2.7,0.3,3.2c0.2,0.5,0.6,0.9,1,1.2c0.5,0.3,1.3,0.4,2.5,0.4v1h-12.4v-1
		c1.2,0,2.1-0.1,2.5-0.4s0.8-0.6,1-1.2c0.2-0.6,0.4-1.6,0.4-3.2V24c0-2.8-0.1-4.6-0.2-5.4c-0.1-0.6-0.3-1-0.6-1.2
		c-0.3-0.2-0.7-0.3-1.1-0.3c-0.5,0-1.2,0.1-1.9,0.4l-0.4-1l7.7-3.1H160.6z M158.3,0c0.8,0,1.4,0.3,2,0.8c0.5,0.5,0.8,1.2,0.8,2
		s-0.3,1.4-0.8,2c-0.5,0.6-1.2,0.8-2,0.8s-1.4-0.3-2-0.8s-0.8-1.2-0.8-2s0.3-1.4,0.8-2C156.8,0.3,157.5,0,158.3,0z">
  </path>
  <path class="st0" d="M184.1,13.3V22h-0.9c-0.7-2.7-1.6-4.6-2.7-5.6c-1.1-1-2.5-1.5-4.2-1.5c-1.3,0-2.3,0.3-3.1,1s-1.2,1.4-1.2,2.3
		c0,1,0.3,1.9,0.9,2.7c0.6,0.8,1.7,1.6,3.5,2.4l4.1,2c3.8,1.8,5.7,4.3,5.7,7.3c0,2.3-0.9,4.2-2.6,5.6c-1.8,1.4-3.7,2.1-5.9,2.1
		c-1.6,0-3.3-0.3-5.3-0.8c-0.6-0.2-1.1-0.3-1.5-0.3c-0.4,0-0.8,0.2-1,0.7h-0.9v-9.1h0.9c0.5,2.6,1.5,4.6,3,5.9s3.1,2,4.9,2
		c1.3,0,2.3-0.4,3.1-1.1c0.8-0.8,1.2-1.7,1.2-2.7c0-1.3-0.5-2.4-1.4-3.2c-0.9-0.9-2.7-2-5.4-3.3c-2.7-1.3-4.5-2.5-5.3-3.6
		c-0.8-1.1-1.3-2.4-1.3-4c0-2.1,0.7-3.9,2.2-5.3c1.4-1.4,3.3-2.1,5.6-2.1c1,0,2.2,0.2,3.6,0.6c0.9,0.3,1.6,0.4,1.9,0.4
		c0.3,0,0.5-0.1,0.7-0.2c0.2-0.1,0.4-0.4,0.6-0.9H184.1z">
  </path>
  <path class="st0" d="M197.2,5.7v8.4h6V16h-6v16.5c0,1.7,0.2,2.8,0.7,3.3c0.5,0.6,1.1,0.9,1.8,0.9c0.6,0,1.2-0.2,1.8-0.6
		c0.6-0.4,1-0.9,1.3-1.7h1.1c-0.6,1.8-1.6,3.2-2.8,4.1s-2.4,1.4-3.7,1.4c-0.9,0-1.7-0.2-2.5-0.7c-0.8-0.5-1.4-1.1-1.8-2
		c-0.4-0.9-0.6-2.2-0.6-4.1V16h-4v-0.9c1-0.4,2.1-1.1,3.1-2.1c1.1-1,2-2.1,2.9-3.5c0.4-0.7,1-2,1.8-3.9H197.2z">
  </path>
 </g>
</svg>