<svg width="309" height="52" viewBox="0 0 309 52" fill="none" xmlns="http://www.w3.org/2000/svg">
<path d="M70.1179 30.1388C71.4651 28.7915 72.3818 27.4582 72.8679 26.1388C73.3679 24.8193 73.6318 22.7152 73.6595 19.8263L73.6804 11.2846H92.8678V30.1388H96.2428V42.4512H89.2012V35.5554H75.1387V42.4512H68.1179L68.097 30.1388H70.1179ZM78.2012 30.1388H85.8053V16.7013H80.6595V19.3054C80.604 23.8471 79.7845 27.4582 78.2012 30.1388Z" fill="white"/>
<path d="M106.951 27.9513V35.5554H99.9095V11.2846H110.493C112.534 11.2846 114.34 11.6527 115.909 12.3888C117.479 13.111 118.694 14.1388 119.555 15.4721C120.43 16.7916 120.868 18.2846 120.868 19.9513C120.868 22.2846 119.944 24.1874 118.097 25.6596C116.264 27.1318 113.833 27.8957 110.805 27.9513H106.951ZM106.951 22.5346H110.493C111.632 22.5346 112.472 22.2916 113.014 21.8054C113.569 21.3193 113.847 20.7152 113.847 19.9929C113.847 19.0346 113.548 18.2499 112.951 17.6388C112.368 17.0138 111.548 16.7013 110.493 16.7013H106.951V22.5346Z" fill="white"/>
<path d="M135.472 21.5138L139.597 11.2846H146.847L138.409 29.3471C137.243 31.8193 136.041 33.5346 134.805 34.4929C133.569 35.4374 132.111 35.9374 130.43 35.9929H128.993L127.889 35.9513L127.784 30.4929C128.118 30.5485 128.611 30.5763 129.264 30.5763C130.014 30.5763 130.625 30.4513 131.097 30.2013C131.569 29.9513 131.993 29.4652 132.368 28.7429L122.784 11.2846H130.284L135.472 21.5138Z" fill="white"/>
<path d="M166.68 16.7013H155.534V35.5554H148.493V11.2846H166.68V16.7013Z" fill="white"/>
<path d="M168.868 35.5554V11.2846H178.618C182.076 11.2846 184.708 11.861 186.514 13.0138C188.333 14.1527 189.243 15.8193 189.243 18.0138C189.243 20.6943 188.041 22.4791 185.639 23.3679C186.93 23.6874 187.937 24.3193 188.659 25.2638C189.395 26.1943 189.764 27.3054 189.764 28.5971C189.764 30.9443 188.958 32.6874 187.347 33.8263C185.75 34.9513 183.257 35.5276 179.868 35.5554H168.868ZM175.909 25.7638V30.1596H179.618C180.576 30.1596 181.333 29.9721 181.889 29.5971C182.444 29.2082 182.722 28.6874 182.722 28.0346C182.722 26.5763 181.868 25.8193 180.159 25.7638H175.909ZM175.909 21.3263H179.243C180.312 21.3124 181.069 21.1249 181.514 20.7638C181.972 20.3888 182.201 19.8332 182.201 19.0971C182.201 18.2221 181.965 17.6041 181.493 17.2429C181.034 16.8818 180.305 16.7013 179.305 16.7013H175.909V21.3263Z" fill="white"/>
<path d="M215.368 23.8471C215.368 26.2221 214.875 28.3332 213.888 30.1804C212.916 32.0138 211.541 33.4235 209.763 34.4096C207.986 35.3957 205.979 35.8888 203.743 35.8888C201.465 35.8888 199.437 35.4026 197.659 34.4304C195.882 33.4582 194.5 32.0554 193.513 30.2221C192.527 28.3749 192.034 26.2568 192.034 23.8679V23.0138C192.034 20.6388 192.513 18.5346 193.472 16.7013C194.43 14.868 195.798 13.4513 197.576 12.4513C199.368 11.4513 201.409 10.9513 203.701 10.9513C205.937 10.9513 207.944 11.4513 209.722 12.4513C211.5 13.4374 212.875 14.8332 213.847 16.6388C214.833 18.4304 215.34 20.486 215.368 22.8054V23.8471ZM208.284 22.9929C208.284 20.8541 207.882 19.2082 207.076 18.0554C206.27 16.8888 205.145 16.3055 203.701 16.3055C200.645 16.3055 199.118 18.5763 199.118 23.1179V23.8471C199.118 25.9304 199.5 27.5693 200.263 28.7638C201.027 29.9582 202.187 30.5554 203.743 30.5554C205.132 30.5554 206.229 29.9721 207.034 28.8054C207.84 27.6388 208.257 26.0415 208.284 24.0138V22.9929Z" fill="white"/>
<path d="M227.513 26.8263H225.118V35.5554H218.076V11.2846H225.118V20.2638H227.576L231.076 11.2846H239.013L233.222 22.7846L239.805 35.5554H231.388L227.513 26.8263Z" fill="white"/>
<path d="M248.951 27.9513V35.5554H241.909V11.2846H252.493C254.534 11.2846 256.34 11.6527 257.909 12.3888C259.479 13.111 260.694 14.1388 261.555 15.4721C262.43 16.7916 262.868 18.2846 262.868 19.9513C262.868 22.2846 261.944 24.1874 260.097 25.6596C258.263 27.1318 255.833 27.8957 252.805 27.9513H248.951ZM248.951 22.5346H252.493C253.631 22.5346 254.472 22.2916 255.013 21.8054C255.569 21.3193 255.847 20.7152 255.847 19.9929C255.847 19.0346 255.548 18.2499 254.951 17.6388C254.368 17.0138 253.548 16.7013 252.493 16.7013H248.951V22.5346Z" fill="white"/>
<path d="M277.472 21.5138L281.597 11.2846H288.847L280.409 29.3471C279.243 31.8193 278.041 33.5346 276.805 34.4929C275.569 35.4374 274.111 35.9374 272.43 35.9929H270.993L269.888 35.9513L269.784 30.4929C270.118 30.5485 270.611 30.5763 271.263 30.5763C272.013 30.5763 272.624 30.4513 273.097 30.2013C273.569 29.9513 273.993 29.4652 274.368 28.7429L264.784 11.2846H272.284L277.472 21.5138Z" fill="white"/>
<path d="M308.68 16.7013H297.534V35.5554H290.492V11.2846H308.68V16.7013Z" fill="white"/>
<path fill-rule="evenodd" clip-rule="evenodd" d="M25.3332 21.3333C31.2242 21.3333 35.9999 16.5577 35.9999 10.6666C35.9999 4.77562 31.2242 0 25.3332 0C19.4422 0 14.6666 4.77562 14.6666 10.6666C14.6666 16.5577 19.4422 21.3333 25.3332 21.3333ZM8.66665 17.3332H13.6278C15.7765 21.3187 19.9356 24.0001 25.4023 24.0001C30.8691 24.0001 34.9662 21.3187 37.074 17.3332H41.9999C46.7864 17.3332 50.6666 21.2134 50.6666 25.9999C50.6666 30.7863 46.7864 34.6665 41.9999 34.6665H33.3333V44C33.3333 48.4183 29.7516 52 25.3333 52C20.9151 52 17.3333 48.4183 17.3333 44V34.6665H8.66665C3.88019 34.6665 0 30.7863 0 25.9999C0 21.2134 3.88019 17.3332 8.66665 17.3332Z" fill="white"/>
</svg>
