<svg xmlns="http://www.w3.org/2000/svg" xml:space="preserve" viewBox="0 0 78 46" width="78" height="46">
  <path d="M388 11918.1v-33.1h6v33.1h-6zm72-24.2h6v24.1h-6v-1.7c-1.8 1.2-4 1.8-6.3 1.8-6.6 0-12-5.5-12-12.1 0-6.7 5.4-12.1 12-12.1 2.3 0 4.5.7 6.3 1.8v-1.8zm-6.3 18.2c3.3 0 6-2.7 6-6.1 0-3.4-2.7-6.1-6-6.1s-6 2.7-6 6.1c-.1 3.4 2.6 6.1 6 6.1zm-41-11.3v-6.8h6v19.1c0 4.2-1.5 8.1-3.9 11.2-2.7 3.4-6.6 5.9-11.1 6.6-1.9.3-3.9-.1-5.5-1.2 1.1-.1 2.2-.4 3.1-1.1-2.7-.5-5-2.3-6.3-4.7-.1-.2-.2-.3-.3-.5.1.1.2.1.3.2 1.3.7 2.7 1.2 4.2 1.4h.2c.4.1.9.1 1.4.1 1.1 0 2.3-.2 3.3-.5.2-.1.5-.2.7-.2 2.6-.9 4.7-2.7 6.1-5 .4-.6.7-1.3 1-2.1-1.3.5-2.7.8-4.1.8-6 0-10.9-4.9-10.9-11v-13.2h6v13.2c0 2.7 2.2 4.9 4.9 4.9s4.9-2.2 4.9-4.9v-6.3zm17.2 7.8c-.7.2-1.5.4-2.3.5v9h-6v-33.1h6v17.9c.3-.1.7-.2 1-.3.2-.1.4-.1.6-.2 1.7-.6 3.2-1.6 4.4-2.9.4-.4.8-.9 1.1-1.4.5-.8.9-1.6 1.2-2.5.4-1.2.6-2.4.6-3.7v-1.1c.1 0 .1.1.2.1l.2.2c.3.3.6.7.9 1.1 1.1 1.5 1.6 3.3 1.7 5.1.6-.6 1-1.3 1.2-2.1.7 1.6.6 3.5-.2 5.1-.1.2-.3.4-.4.7-.9 1.4-1.9 2.7-3.2 3.8-.5.4-.9.8-1.4 1.2l8.4 12.2h-7.3l-6.7-9.6z" style="fill-rule:evenodd;clip-rule:evenodd;fill:#005648" transform="translate(-388 -11885)"/>
</svg>
