<?xml version="1.0" encoding="UTF-8"?>
<svg xmlns="http://www.w3.org/2000/svg" xmlns:xlink="http://www.w3.org/1999/xlink" version="1.1" id="Calque_1" x="0px" y="0px" viewBox="0 0 500 500" style="enable-background:new 0 0 500 500;" xml:space="preserve">
<style type="text/css">
	.st0{fill:#004413;}
	.st1{fill:#FBC500;}
</style>
<g>
	<path class="st0" d="M0,474C0,324.4,0,174.9,0,25.3c1,0,1.9,0.1,2.9,0.1c164.8,0,329.6,0,494.4,0c0.9,0,1.8-0.1,2.7-0.1   c0,149.6,0,299.2,0,448.7c-1,0-1.9,0.1-2.9,0.1c-164.8,0-329.6,0-494.4,0C1.8,474.1,0.9,474,0,474z M250,204c-0.5-1.4-0.7-2.2-1-3   c-6.7-22.8-14.8-45.1-27.2-65.5c-6.8-11.1-14.6-21.4-25.4-28.9c-8.3-5.8-17.3-8.9-27.6-7.5c-9.1,1.3-16.5,5.8-23.1,11.9   c-10.3,9.4-17.7,21-24,33.2c-10.7,20.7-18.1,42.6-24.1,65c-9.4,35.4-15.1,71.4-18.6,107.7c-2.8,28.5-4,57.1-4.3,85.8   c0,2,0.4,2.6,2.5,2.6c12.9-0.1,25.7-0.1,38.6,0c2.4,0,2.9-0.6,2.9-2.9c-0.1-35,1.2-70,4-104.9c2.3-29.8,5.7-59.6,11.1-89   c3.7-20.1,8.1-40,15.5-59.1c3.2-8.3,6.8-16.4,13-23c7.1-7.6,14.6-7.7,22-0.4c4.8,4.8,8.1,10.6,10.9,16.6   c6.8,14.5,11.1,29.8,14.6,45.4c8.8,38.3,13,77.2,15.6,116.4c1.7,25.6,2.6,51.2,2.5,76.8c0,1.7,0.5,2.2,2.2,2.1   c13-0.1,26-0.1,39.1,0c2.1,0,2.7-0.5,2.7-2.7c-0.1-22.1,0.6-44.3,1.8-66.4c1.9-34.4,5.3-68.6,11.4-102.5   c3.6-19.9,7.9-39.7,15.1-58.7c3.4-9,7.2-17.8,13.5-25.2c8.5-9.9,17.5-9.7,25.6,0.5c5,6.3,8.3,13.5,11.2,21   c8,20.8,12.7,42.5,16.5,64.3c6.1,34.9,9.5,70.1,11.7,105.4c1.7,27.9,2.6,55.8,2.5,83.7c0,1.9,0.4,2.4,2.4,2.4   c12.9-0.1,25.9-0.1,38.8,0c2.4,0,2.7-0.7,2.7-2.9c-0.3-39.8-2.7-79.5-8.2-119c-3.7-26.3-8.6-52.4-15.7-78.1   c-6.2-22.4-13.8-44.4-25-64.9c-6.5-11.9-14-23.1-24.7-31.8c-15.5-12.7-32.6-13.3-48.8-1.6c-9.2,6.6-16.2,15.3-22.3,24.7   c-11.4,17.5-19.1,36.7-25.6,56.4C253.3,193.2,251.8,198.3,250,204z"></path>
	<path class="st1" d="M250,204c1.8-5.7,3.3-10.8,4.9-15.8c6.5-19.7,14.2-38.9,25.6-56.4c6.1-9.4,13.1-18,22.3-24.7   c16.3-11.7,33.3-11.2,48.8,1.6c10.6,8.7,18.2,19.9,24.7,31.8c11.2,20.5,18.8,42.4,25,64.9c7.1,25.7,12,51.7,15.7,78.1   c5.5,39.5,7.9,79.1,8.2,119c0,2.1-0.4,2.9-2.7,2.9c-12.9-0.1-25.9-0.1-38.8,0c-1.9,0-2.4-0.5-2.4-2.4c0.1-27.9-0.8-55.8-2.5-83.7   c-2.2-35.3-5.6-70.5-11.7-105.4c-3.8-21.9-8.5-43.5-16.5-64.3c-2.9-7.4-6.2-14.7-11.2-21c-8.1-10.2-17.1-10.4-25.6-0.5   c-6.3,7.4-10.1,16.2-13.5,25.2c-7.1,19-11.5,38.8-15.1,58.7c-6.1,33.9-9.4,68.1-11.4,102.5c-1.2,22.1-2,44.2-1.8,66.4   c0,2.2-0.6,2.7-2.7,2.7c-13-0.1-26-0.1-39.1,0c-1.7,0-2.2-0.4-2.2-2.1c0.1-25.6-0.7-51.3-2.5-76.8c-2.6-39.1-6.9-78.1-15.6-116.4   c-3.6-15.5-7.8-30.9-14.6-45.4c-2.8-6.1-6.1-11.9-10.9-16.6c-7.4-7.3-14.9-7.2-22,0.4c-6.1,6.6-9.8,14.7-13,23   c-7.4,19.1-11.8,39-15.5,59.1c-5.5,29.5-8.8,59.2-11.1,89c-2.7,34.9-4,69.9-4,104.9c0,2.3-0.5,3-2.9,2.9c-12.9-0.1-25.7-0.1-38.6,0   c-2.1,0-2.5-0.6-2.5-2.6c0.3-28.7,1.5-57.3,4.3-85.8c3.5-36.4,9.2-72.4,18.6-107.7c6-22.4,13.3-44.3,24.1-65   c6.4-12.3,13.7-23.8,24-33.2c6.6-6,14-10.6,23.1-11.9c10.2-1.4,19.3,1.7,27.6,7.5c10.8,7.6,18.7,17.8,25.4,28.9   c12.4,20.4,20.5,42.7,27.2,65.5C249.3,201.8,249.5,202.6,250,204z"></path>
</g>
</svg>
