<?xml version="1.0" ?><svg xmlns="http://www.w3.org/2000/svg" width="222.188" height="57.067" viewBox="0 0 222.188 57.067">
  <g id="Groupe_1" data-name="Groupe 1" transform="translate(-24.04 -146.903)">
    <path id="Tracé_1" data-name="Tracé 1" d="M45.536,177.5,66.6,147.469H55.932l-10.4,15.2-10.4-15.2H24.479Z" transform="translate(-0.126 -0.163)" fill="#f6a323"/>
    <path id="Tracé_2" data-name="Tracé 2" d="M69.245,174.368V189.55H79.509v-29.56Z" transform="translate(-12.993 -3.762)" fill="#313b3e"/>
    <path id="Tracé_3" data-name="Tracé 3" d="M34.674,174.368V189.55H24.41v-29.56Z" transform="translate(-0.106 -3.762)" fill="#313b3e"/>
    <rect id="Rectangle_1" data-name="Rectangle 1" width="9.517" height="38.283" transform="translate(75.642 147.693)" fill="#313b3e"/>
    <path id="Tracé_4" data-name="Tracé 4" d="M147.749,170.1h9.74c-1.182,9.909-8.72,16.661-19.194,16.661-11.545,0-20.266-8.384-20.266-19.926S126.75,146.9,138.3,146.9c10.473,0,18.012,6.763,19.194,16.665h-9.74c-1.066-4.782-4.444-7.767-9.509-7.767-6.249,0-10.585,4.674-10.585,11.035s4.335,11.032,10.585,11.032c5.065,0,8.443-2.982,9.509-7.768" transform="translate(-27.015)" fill="#313b3e"/>
    <path id="Tracé_5" data-name="Tracé 5" d="M216.248,186.294h-9.514V171.935H191.142v14.359h-9.514V148.011h9.514v15.372h15.593V148.011h9.514Z" transform="translate(-45.295 -0.318)" fill="#313b3e"/>
    <path id="Tracé_6" data-name="Tracé 6" d="M256.6,158.79l-4.955,12.721h9.909Zm-8.106,20.829-2.533,6.585H235.821L252.1,147.7h9.062L277.372,186.2H267.3l-2.592-6.585Z" transform="translate(-60.871 -0.228)" fill="#313b3e"/>
    <path id="Tracé_7" data-name="Tracé 7" d="M310.015,156.515v29.779H300.5V156.515H288.286v-8.5h33.893v8.5Z" transform="translate(-75.951 -0.318)" fill="#313b3e"/>
    <path id="Tracé_8" data-name="Tracé 8" d="M33.964,213.445H30.387v8.72h-2.77v-8.72H24.04v-2.489h9.924Z" transform="translate(0 -18.41)" fill="#313b3e"/>
    <path id="Tracé_9" data-name="Tracé 9" d="M45.859,216.412H47.92c1.072,0,1.913-.594,1.913-1.516,0-.907-.841-1.484-1.913-1.484H45.859Zm4.253,5.753-2.126-3.247H45.859v3.247H43.074v-11.21h4.9c2.786,0,4.649,1.516,4.649,3.94a3.751,3.751,0,0,1-1.9,3.346l2.637,3.923Z" transform="translate(-5.471 -18.41)" fill="#313b3e"/>
    <path id="Tracé_10" data-name="Tracé 10" d="M69.079,217.912l-1.467-3.775-1.467,3.775Zm.906,2.324H65.238l-.742,1.929H61.529l4.764-11.21h2.671l4.747,11.21H70.744Z" transform="translate(-10.775 -18.41)" fill="#313b3e"/>
    <path id="Tracé_11" data-name="Tracé 11" d="M86.425,213.412v2.374h4.814v2.423H86.425v3.956H83.638v-11.21h8.375v2.456Z" transform="translate(-17.13 -18.41)" fill="#313b3e"/>
    <path id="Tracé_12" data-name="Tracé 12" d="M103.261,213.412v2.374h4.813v2.423h-4.813v3.956h-2.786v-11.21h8.375v2.456Z" transform="translate(-21.969 -18.41)" fill="#313b3e"/>
    <rect id="Rectangle_2" data-name="Rectangle 2" width="2.786" height="11.21" transform="translate(90.503 192.546)" fill="#313b3e"/>
    <path id="Tracé_13" data-name="Tracé 13" d="M135.667,217.43h2.869a5.4,5.4,0,0,1-5.622,4.863,5.82,5.82,0,1,1,0-11.638,5.4,5.4,0,0,1,5.622,4.863h-2.869a2.663,2.663,0,0,0-2.769-2.258,3.217,3.217,0,0,0,0,6.429,2.663,2.663,0,0,0,2.769-2.258" transform="translate(-29.587 -18.324)" fill="#313b3e"/>
    <path id="Tracé_14" data-name="Tracé 14" d="M167.477,214.348h-2.8a1.624,1.624,0,0,0-1.846-1.418c-.989,0-1.633.38-1.633,1.1,0,.643.462.924,1.352,1.1l1.566.33c2.061.429,3.38,1.27,3.38,3.2,0,2.242-1.846,3.627-4.649,3.627-2.522,0-4.8-1.2-5.061-3.973h2.8a2.109,2.109,0,0,0,2.342,1.615c.988,0,1.583-.38,1.583-1.006,0-.4-.215-.807-1.187-.989l-1.846-.4c-2.209-.478-3.248-1.484-3.248-3.264,0-2.242,1.813-3.626,4.451-3.626,1.813,0,4.516.676,4.8,3.693" transform="translate(-38.441 -18.324)" fill="#f6a323"/>
    <path id="Tracé_15" data-name="Tracé 15" d="M185.614,216.475a3.118,3.118,0,1,0-3.116,3.214,3.115,3.115,0,0,0,3.116-3.214m2.818,0a5.936,5.936,0,1,1-5.934-5.82,5.783,5.783,0,0,1,5.934,5.82" transform="translate(-43.839 -18.324)" fill="#f6a323"/>
    <path id="Tracé_16" data-name="Tracé 16" d="M207.3,219.676v2.489h-8.324v-11.21h2.785v8.72Z" transform="translate(-50.281 -18.41)" fill="#f6a323"/>
    <path id="Tracé_17" data-name="Tracé 17" d="M225.6,216.939c0,3.478-2.011,5.44-5.226,5.44-3.2,0-5.209-1.962-5.209-5.44v-5.984h2.8v6.033c0,1.714.939,2.786,2.406,2.786s2.423-1.072,2.423-2.786v-6.033h2.8Z" transform="translate(-54.934 -18.41)" fill="#f6a323"/>
    <path id="Tracé_18" data-name="Tracé 18" d="M244.561,213.445h-3.577v8.72h-2.77v-8.72h-3.577v-2.489h9.924Z" transform="translate(-60.531 -18.41)" fill="#f6a323"/>
    <rect id="Rectangle_3" data-name="Rectangle 3" width="2.785" height="11.21" transform="translate(187.67 192.546)" fill="#f6a323"/>
    <path id="Tracé_19" data-name="Tracé 19" d="M272.388,216.475a3.117,3.117,0,1,0-3.116,3.214,3.114,3.114,0,0,0,3.116-3.214m2.819,0a5.936,5.936,0,1,1-5.935-5.82,5.783,5.783,0,0,1,5.935,5.82" transform="translate(-68.78 -18.324)" fill="#f6a323"/>
    <path id="Tracé_20" data-name="Tracé 20" d="M296.053,210.956v11.21h-2.143l-5.374-6.149v6.149H285.75v-11.21h2.126l5.407,6.313v-6.313Z" transform="translate(-75.222 -18.41)" fill="#f6a323"/>
    <path id="Tracé_21" data-name="Tracé 21" d="M315.563,214.348h-2.8a1.623,1.623,0,0,0-1.846-1.418c-.989,0-1.632.38-1.632,1.1,0,.643.461.924,1.352,1.1l1.566.33c2.061.429,3.38,1.27,3.38,3.2,0,2.242-1.846,3.627-4.648,3.627-2.523,0-4.8-1.2-5.061-3.973h2.8a2.107,2.107,0,0,0,2.34,1.615c.99,0,1.583-.38,1.583-1.006,0-.4-.214-.807-1.186-.989l-1.847-.4c-2.208-.478-3.248-1.484-3.248-3.264,0-2.242,1.814-3.626,4.451-3.626,1.814,0,4.517.676,4.8,3.693" transform="translate(-81.005 -18.324)" fill="#f6a323"/>
  </g>
</svg>
